<svg version="1" xmlns="http://www.w3.org/2000/svg" width="1706.667" height="1706.667" viewBox="0 0 1280.000000 1280.000000"><path d="M265.7 123.7c-.1.1-2.7.4-5.7.8-24.1 2.6-46.2 8.9-69 19.8-10.9 5.2-25 14.1-37.5 23.6-7.3 5.5-27.1 24.8-30.2 29.3-1.2 1.8-3.3 4.4-4.5 5.8-1.3 1.4-3.6 4.5-5.3 7-1.6 2.5-3.3 4.7-3.6 5-.3.3-1.4 1.8-2.3 3.5-.9 1.6-2.6 4.6-3.8 6.5-2.6 4.3-11 21-13.3 26.5-4.9 11.8-11.3 35.6-13 48.2-.3 2.4-.8 6.2-1.1 8.5-1.9 13.5-.7 41.6 2.6 59.6 1.6 8.8 7.7 31 9.9 35.7 1 2.2 2.2 5.1 2.6 6.5 2.1 6.9 15.5 31.5 23.6 43.2 1.1 1.5 1.9 2.9 1.9 3.2 0 .2 2.8 5.1 6.1 10.8 3.4 5.7 6.4 11 6.8 11.8.3.9 3 5.4 5.9 10.2 2.8 4.7 5.2 9.1 5.2 9.7 0 .6.4 1.1.9 1.1s1.1.8 1.4 1.7c.4 1 1.8 3.8 3.3 6.3 2.4 4.1 10.4 17.9 26.9 46.5 3.2 5.5 11 19 17.3 30 6.3 11 12.6 21.7 13.8 23.7 1.3 2.1 2.4 4 2.4 4.3 0 .2 1.7 3.3 3.8 6.7 2.1 3.5 4.1 7 4.5 7.8.4.8 1.7 3.1 2.8 5 2.3 3.7 19.3 33 22.7 39 4.2 7.4 24.1 41.9 28.6 49.3 2.5 4.3 4.6 8 4.6 8.2 0 .2 1.4 2.8 3.2 5.7 1.7 2.9 4.7 8 6.6 11.3 1.9 3.3 4.2 7.3 5.2 9 5 8.7 32.5 56.4 34 59 8.2 14.2 15.2 26.3 16 27.5.6.8 1.3 2.2 1.7 3 .4.8 3.3 5.9 6.5 11.3s5.8 10.3 5.8 10.8.5.9 1.2.9c.6 0 .8.3.5.7-.4.3-.1 1.3.6 2.2 1.7 2 9.7 15.7 9.7 16.6 0 .3 1.3 2.6 3 5s3 4.6 3 4.8c0 .4 12.6 22.4 29.4 51.2 2.9 4.9 9.9 17.1 15.6 27 5.6 9.9 11.3 19.7 12.6 21.7 1.3 2.1 2.4 4 2.4 4.4 0 .3.8 1.8 1.8 3.2 1.1 1.5 3.2 5.2 4.9 8.2 11.7 21.5 30.4 52.4 38.5 63.5 9.5 13 27.9 31 43.3 42.2 24.3 17.7 59.4 32.3 86.1 35.9 2.7.3 5.1.7 5.4.9 1.2.7 19.3 1.9 29 1.9 14.9 0 24.3-.8 40.6-3.8 8.4-1.5 24-6.2 34.4-10.2 27.5-10.8 51.6-26.8 72.8-48.2 15.3-15.5 27.8-32.9 37.7-52.2 2.1-4.1 6.4-12 9.5-17.5 3.2-5.5 6.7-11.6 7.8-13.5 5.4-9.5 13.4-23.4 18.1-31.3 2.8-4.9 5.1-9.3 5.1-9.8s.3-.9.8-.9c.4 0 1.2-1 1.8-2.3 1.3-2.7 28.3-49.8 29.4-51.2.4-.6 2.1-3.5 3.7-6.5 1.7-3 6-10.6 9.7-16.8 3.6-6.2 6.6-11.7 6.6-12.3 0-.5.4-.9.9-.9s1.1-.8 1.5-1.7c.3-1 1.4-3.2 2.4-4.8 1-1.7 3.7-6.4 6-10.5 2.4-4.1 5.2-9.1 6.4-11 1.7-3 14.6-25.4 19.8-34.4 1-1.7 5.8-10.1 10.7-18.6 5-8.5 11.3-19.6 14.2-24.5 2.8-5 5.5-9.7 6.1-10.5.5-.8 2.1-3.8 3.6-6.5 1.4-2.8 3.2-5.7 4-6.6.8-.8 1.4-1.8 1.4-2.1 0-.4 1.9-3.9 4.3-8 2.4-4 5.5-9.3 6.9-11.8 1.4-2.5 6-10.6 10.3-18 4.3-7.4 8.9-15.5 10.3-18 1.3-2.5 3-5.2 3.6-6 .6-.8 1.6-2.4 2.2-3.5 3-5.6 11.1-19.9 13.3-23.5 1-1.6 15.9-27.4 20.2-34.9 1.4-2.5 6.5-11.3 11.3-19.4 4.7-8.2 8.6-15.3 8.6-15.8s.5-.9 1-.9c.6 0 1-.4 1-.9s6.3-11.8 14-25.1 14-24.6 14-25.1.5-.9 1-.9c.6 0 1-.4 1-.8 0-.5 3.9-7.6 8.6-15.8 4.7-8.2 9.4-16.3 10.4-18.1 1-1.7 7.1-12.3 13.6-23.5 6.4-11.1 13.6-23 15.9-26.3 17.2-24.4 30.8-56.5 35-82.5.3-1.9.8-4.2 1-5 1.9-7 2.7-44.4 1.2-56.5-.6-5.4-2.9-18.5-4.1-24.3-3.7-17.3-14.6-44.6-23.9-59.7-2.4-4-13.7-20.4-14.9-21.7-.7-.7-3.8-4.2-6.8-7.8-8.3-9.7-18.6-19.5-30.6-29-4.9-3.9-19.8-13.3-28.4-17.9-22.2-11.7-51.9-20.8-74-22.6-6.4-.5-754.8-1.3-755.3-.8z"/></svg>